<svg width="17" height="20" viewBox="0 0 17 20" fill="none" xmlns="http://www.w3.org/2000/svg">
<path d="M9.19588 1.74045C10.5391 0.00844384 12.4066 0 12.4066 0C12.4066 0 12.6844 1.62838 11.3499 3.19703C9.92504 4.87199 8.30547 4.59792 8.30547 4.59792C8.30547 4.59792 8.00136 3.28061 9.19588 1.74045ZM8.47632 5.73859C9.16736 5.73859 10.4499 4.80931 12.1193 4.80931C14.9929 4.80931 16.1234 6.80964 16.1234 6.80964C16.1234 6.80964 13.9124 7.91552 13.9124 10.5989C13.9124 13.626 16.6667 14.6692 16.6667 14.6692C16.6667 14.6692 14.7413 19.9706 12.1407 19.9706C10.9463 19.9706 10.0176 19.1832 8.7591 19.1832C7.47657 19.1832 6.20383 20 5.37489 20C3.00014 20.0001 0 14.9711 0 10.9286C0 6.95141 2.53942 4.86503 4.92129 4.86503C6.46972 4.86503 7.67132 5.73859 8.47632 5.73859Z" fill="black"/>
</svg>
