<svg width="18" height="16" viewBox="0 0 18 16" fill="none" xmlns="http://www.w3.org/2000/svg">
<path d="M13.0613 1.63029C11.817 1.06329 10.4625 0.779785 9 0.779785C7.5375 0.779785 6.18075 1.06554 4.9365 1.63254C3.69225 2.19954 2.70675 2.97128 1.9845 3.95003C1.26225 4.92878 0.900002 5.99528 0.900002 7.15178C0.900002 8.27228 1.24425 9.30954 1.926 10.2613C2.61 11.2175 3.5325 11.9825 4.69575 12.5585C4.185 14.2775 3.9105 15.2563 3.8745 15.4925V15.5285C3.8745 15.551 3.88125 15.5803 3.89475 15.6095C3.90825 15.6388 3.924 15.6635 3.94875 15.6815C4.0095 15.7108 4.0725 15.713 4.14 15.6905C4.2795 15.6703 5.42025 14.9188 7.5645 13.4315C8.0595 13.4968 8.5365 13.5328 9.00225 13.5328C10.4738 13.5328 11.8283 13.247 13.0703 12.68C14.3145 12.113 15.2933 11.3345 16.0178 10.3535C16.74 9.37253 17.1023 8.30378 17.1023 7.14954C17.1023 5.99303 16.74 4.92653 16.0178 3.94778C15.291 2.97578 14.3055 2.20179 13.0613 1.63029Z" fill="black"/>
</svg>
